<svg width="24" height="24" viewBox="0 0 24 24" fill="none" xmlns="http://www.w3.org/2000/svg">
<path d="M1 10L10.6257 3.41241C11.4291 2.86253 12.5709 2.86253 13.3743 3.41241L23 10" stroke="#020202" stroke-width="1.5" stroke-linecap="round" stroke-linejoin="round"/>
<path d="M9.16233 4.44042L4.66233 7.61963C3.8453 8.19686 3.43678 8.48547 3.21838 8.88443C3 9.2834 3 9.74109 3 10.6565V14.1743C3 17.8633 3 19.7079 4.31802 20.8539C5.63604 22 7.75736 22 12 22C16.2426 22 18.364 22 19.6819 20.8539C21 19.7079 21 17.8633 21 14.1743V10.6565C21 9.74109 21 9.2834 20.7816 8.88443C20.5632 8.48547 20.1547 8.19686 19.3377 7.61963L14.8377 4.44042C13.4785 3.48014 12.7989 3 12 3C11.2011 3 10.5215 3.48014 9.16233 4.44042Z" stroke="#020202" stroke-width="1.5"/>
<path d="M9.75 16.25H14.25" stroke="#020202" stroke-width="1.5" stroke-linecap="round"/>
</svg>
