<svg width="226" height="49" viewBox="0 0 226 49" fill="none" xmlns="http://www.w3.org/2000/svg">
<path d="M51.0234 40.704C48.4794 41.424 45.3594 41.328 41.7594 40.752C39.2634 40.272 36.4314 39.024 33.9354 37.296L37.2954 30.768C40.4154 32.4 43.3434 33.6 46.1274 33.984C47.9034 34.368 48.2874 32.208 46.7034 31.536C44.6394 30.528 41.9034 30 38.5914 27.984C35.4234 26.064 33.8394 22.128 35.4714 18.288C36.6714 15.12 39.5994 13.056 44.9274 12.864C49.1994 12.72 52.8474 13.968 56.4474 16.752L52.1274 22.752C49.4874 21.12 47.4234 20.448 45.4074 20.304C44.3034 20.16 43.6794 22.032 44.8314 22.656C46.7994 23.76 49.6314 24.336 52.3194 25.776C55.8714 27.6 57.5514 30.432 57.0234 34.128C56.5914 37.728 54.3354 39.744 51.0234 40.704ZM75.7265 40.704C73.1825 41.424 70.0625 41.328 66.4625 40.752C63.9665 40.272 61.1345 39.024 58.6385 37.296L61.9985 30.768C65.1185 32.4 68.0465 33.6 70.8305 33.984C72.6065 34.368 72.9905 32.208 71.4065 31.536C69.3425 30.528 66.6065 30 63.2945 27.984C60.1265 26.064 58.5425 22.128 60.1745 18.288C61.3745 15.12 64.3025 13.056 69.6305 12.864C73.9025 12.72 77.5505 13.968 81.1505 16.752L76.8305 22.752C74.1905 21.12 72.1265 20.448 70.1105 20.304C69.0065 20.16 68.3825 22.032 69.5345 22.656C71.5025 23.76 74.3345 24.336 77.0225 25.776C80.5745 27.6 82.2545 30.432 81.7265 34.128C81.2945 37.728 79.0385 39.744 75.7265 40.704ZM84.1096 27.216C84.1096 18.384 89.4856 12.912 97.2616 12.912C105.23 12.912 109.838 18.768 109.838 27.312L109.646 29.952H92.3176C92.5096 32.4 94.8616 33.744 97.5976 33.744C100.094 33.744 101.822 32.736 103.358 30.864L108.782 35.568C105.95 39.456 102.11 41.232 97.2616 41.232C89.5336 41.232 83.9656 35.856 84.1096 27.216ZM101.726 23.52C101.39 21.312 99.4696 20.256 97.3096 20.256C94.9096 20.256 93.0856 21.456 92.7976 23.52H101.726ZM112.998 40.272V13.872H121.11V15.504C123.222 14.016 125.142 13.44 127.494 13.2H128.022C131.286 13.2 133.494 14.352 134.79 16.224C136.998 14.544 140.214 13.2 142.134 13.2H142.95C149.094 13.2 152.166 16.992 152.166 23.424V40.272H144.198V27.744C144.198 22.464 142.806 21.264 140.55 21.36C138.918 21.408 138.006 21.84 136.902 22.8C136.95 23.232 136.95 23.712 136.95 24.144V40.272H129.03V27.744C129.03 22.8 127.638 21.264 125.334 21.36C123.462 21.408 122.454 22.032 121.11 23.136V40.272H112.998ZM171.196 40.656C168.46 40.656 165.868 39.6 164.332 37.92V40.272H156.076V4.656H164.332V16.32C165.724 14.784 168.268 13.488 171.436 13.392C178.444 13.056 183.628 18.192 183.724 27.216C183.868 36.528 178.3 40.656 171.196 40.656ZM169.612 33.312C172.588 33.504 175.66 31.824 175.66 26.976C175.66 22.608 172.78 20.736 170.188 20.736C166.972 20.736 164.62 23.472 164.62 27.696C164.62 30.672 166.444 33.12 169.612 33.312ZM187.014 3.936H195.366V40.272H187.014V3.936ZM198.672 27.216C198.672 18.384 204.048 12.912 211.824 12.912C219.792 12.912 224.4 18.768 224.4 27.312L224.208 29.952H206.88C207.072 32.4 209.424 33.744 212.16 33.744C214.656 33.744 216.384 32.736 217.92 30.864L223.344 35.568C220.512 39.456 216.672 41.232 211.824 41.232C204.096 41.232 198.528 35.856 198.672 27.216ZM216.288 23.52C215.952 21.312 214.032 20.256 211.872 20.256C209.472 20.256 207.648 21.456 207.36 23.52H216.288Z" fill="white"/>
<rect y="19" width="29" height="22" fill="white"/>
<ellipse cx="14.5" cy="19" rx="14.5" ry="14" fill="white"/>
<circle cx="14.5" cy="20.5" r="5.5" fill="#589BFF"/>
<circle cx="14.5" cy="34.5" r="5.5" fill="#589BFF"/>
<rect x="9" y="34" width="11" height="7" fill="#589BFF"/>
</svg>