<svg width="30" height="30" viewBox="0 0 30 30" fill="none" xmlns="http://www.w3.org/2000/svg">
<path fill-rule="evenodd" clip-rule="evenodd" d="M3.50462 10.4417C3.15444 13.6953 3.17005 17.4478 3.65733 20.6882C3.92695 22.4812 5.39029 23.8558 7.19662 24.0128L9.08442 24.1769C13.0207 24.5191 16.9793 24.5191 20.9156 24.1769L22.8034 24.0128C24.6097 23.8558 26.0731 22.4812 26.3427 20.6882C26.83 17.4478 26.8456 13.6955 26.4954 10.4419C26.4502 10.0647 26.3992 9.68801 26.3427 9.31195C26.0731 7.51896 24.6097 6.14441 22.8034 5.98738L20.9156 5.82328C16.9793 5.48111 13.0207 5.48111 9.08442 5.82328L7.19662 5.98738C5.39029 6.14441 3.92695 7.51896 3.65733 9.31195C3.60079 9.68795 3.54989 10.0646 3.50462 10.4417ZM9.24679 7.69124C13.0751 7.35845 16.925 7.35845 20.7532 7.69124L22.641 7.85534C23.5839 7.93731 24.3478 8.65483 24.4885 9.59077C24.5032 9.68797 24.5174 9.78521 24.5312 9.88249L17.5799 13.7443C15.9755 14.6357 14.0245 14.6357 12.42 13.7443L5.46882 9.88254C5.48264 9.78524 5.49686 9.68798 5.51148 9.59077C5.65223 8.65483 6.41609 7.93731 7.359 7.85534L9.24679 7.69124ZM24.7606 11.9C25.0031 14.7346 24.9124 17.5907 24.4885 20.4094C24.3478 21.3453 23.5839 22.0629 22.641 22.1448L20.7532 22.3089C16.925 22.6417 13.0751 22.6417 9.24679 22.3089L7.359 22.1448C6.41609 22.0629 5.65223 21.3453 5.51148 20.4094C5.08762 17.5907 4.99692 14.7347 5.23938 11.9L11.5094 15.3833C13.6802 16.5893 16.3197 16.5893 18.4905 15.3833L24.7606 11.9Z" fill="#020202"/>
</svg>
