<svg width="68" height="68" viewBox="0 0 68 68" fill="none" xmlns="http://www.w3.org/2000/svg">
<circle cx="34" cy="34" r="34" fill="#589BFF"/>
<path d="M29.3137 44.2C29.13 44.2 28.9615 44.1694 28.8083 44.1081C28.6552 44.0469 28.502 43.9397 28.3489 43.7865L20.0327 35.4703C19.757 35.1946 19.6191 34.8577 19.6191 34.4595C19.6191 34.0613 19.757 33.7243 20.0327 33.4487C20.3083 33.173 20.63 33.0352 20.9975 33.0352C21.3651 33.0352 21.6867 33.173 21.9624 33.4487L29.3137 40.8L45.9921 24.1216C46.2678 23.846 46.5971 23.7081 46.9799 23.7081C47.3628 23.7081 47.6921 23.846 47.9678 24.1216C48.2435 24.3973 48.3813 24.7266 48.3813 25.1095C48.3813 25.4924 48.2435 25.8216 47.9678 26.0973L30.2786 43.7865C30.1254 43.9397 29.9723 44.0469 29.8191 44.1081C29.666 44.1694 29.4975 44.2 29.3137 44.2Z" fill="white"/>
</svg>
