<svg width="32" height="32" viewBox="0 0 32 32" fill="none" xmlns="http://www.w3.org/2000/svg">
<path d="M11.8 23.2667C11.6222 23.0445 11.5278 22.8 11.5167 22.5334C11.5056 22.2667 11.6 22.0334 11.8 21.8334L17.6667 15.9667L11.7667 10.0667C11.5889 9.88893 11.5056 9.65004 11.5167 9.35004C11.5278 9.05004 11.6222 8.81116 11.8 8.63338C12.0222 8.41116 12.2611 8.3056 12.5167 8.31671C12.7722 8.32782 13 8.43338 13.2 8.63338L19.8333 15.2667C19.9444 15.3778 20.0222 15.4889 20.0667 15.6C20.1111 15.7112 20.1333 15.8334 20.1333 15.9667C20.1333 16.1 20.1111 16.2223 20.0667 16.3334C20.0222 16.4445 19.9444 16.5556 19.8333 16.6667L13.2333 23.2667C13.0333 23.4667 12.8 23.5612 12.5333 23.55C12.2667 23.5389 12.0222 23.4445 11.8 23.2667Z" fill="#9CA3AD"/>
</svg>
